<svg width="40" height="115" xmlns="http://www.w3.org/2000/svg">

 <g>
  <title>background</title>
  <rect fill="none" id="canvas_background" height="117" width="42" y="-1" x="-1"/>
 </g>
 <g>
  <title>Layer 1</title>
  <path id="svg_1" fill="#ff6600" stroke="#2F3435" stroke-width="0" stroke-miterlimit="10" d="m1.3685,53.828501c9.837,0 13.99,-5.403 13.99,-10.253c0,-3.875 0.272,-19.254 0.272,-23.135c0,-12.741 8.314,-18.144 20.09,-18.144l2.911,0l0,7.62l-2.494,0c-8.178,0 -11.366,4.012 -11.366,11.491c0,3.187 -0.13,17.042 -0.13,20.786c0.141,8.866 -6.513,13.299 -12.749,14.957l0,0.282c6.236,1.522 12.89,6.232 12.749,15.098c0,3.739 0.13,16.759 0.13,20.081c0,7.76 3.606,12.473 11.366,12.473l2.494,0l0,7.619l-2.911,0c-11.499,0 -20.09,-4.986 -20.09,-18.979c0,-3.739 -0.272,-18.843 -0.272,-22.581c0,-4.293 -4.153,-10.248 -13.99,-10.248l0,-7.067z"/>
 </g>
</svg>